#define a_width 16
#define a_height 16
static char a_bits[] = {
  0x33, 0x33,
  0x99, 0x99,
  0xcc, 0xcc,
  0x66, 0x66,
  0x33, 0x33,
  0x99, 0x99,
  0xcc, 0xcc,
  0x66, 0x66,
  0x33, 0x33,
  0x99, 0x99,
  0xcc, 0xcc,
  0x66, 0x66,
  0x33, 0x33,
  0x99, 0x99,
  0xcc, 0xcc,
  0x66, 0x66};
