#define b_width 16
#define b_height 16
static char b_bits[] = {
  0x55, 0x55,
  0x55, 0x55,
  0x55, 0x55,
  0x55, 0x55,
  0x55, 0x55,
  0x55, 0x55,
  0x55, 0x55,
  0x55, 0x55,
  0x55, 0x55,
  0x55, 0x55,
  0x55, 0x55,
  0x55, 0x55,
  0x55, 0x55,
  0x55, 0x55,
  0x55, 0x55,
  0x55, 0x55};
