#define c_width 16
#define c_height 16
static char c_bits[] = {
  0x77, 0x77,
  0x55, 0x55,
  0x77, 0x77,
  0x00, 0x00,
  0x77, 0x77,
  0x55, 0x55,
  0x77, 0x77,
  0x00, 0x00,
  0x77, 0x77,
  0x55, 0x55,
  0x77, 0x77,
  0x00, 0x00,
  0x77, 0x77,
  0x55, 0x55,
  0x77, 0x77,
  0x00, 0x00};
