#define e_width 16
#define e_height 16
static char e_bits[] = {
  0x55, 0x55,
  0x00, 0x00,
  0x55, 0x55,
  0x00, 0x00,
  0x55, 0x55,
  0x00, 0x00,
  0x55, 0x55,
  0x00, 0x00,
  0x55, 0x55,
  0x00, 0x00,
  0x55, 0x55,
  0x00, 0x00,
  0x55, 0x55,
  0x00, 0x00,
  0x55, 0x55,
  0x00, 0x00};
