#define f_width 16
#define f_height 16
static char f_bits[] = {
  0xaa, 0xaa,
  0x00, 0x00,
  0xaa, 0xaa,
  0x00, 0x00,
  0xaa, 0xaa,
  0x00, 0x00,
  0xaa, 0xaa,
  0x00, 0x00,
  0xaa, 0xaa,
  0x00, 0x00,
  0xaa, 0xaa,
  0x00, 0x00,
  0xaa, 0xaa,
  0x00, 0x00,
  0xaa, 0xaa,
  0x00, 0x00};
