#define h_width 16
#define h_height 16
static char h_bits[] = {
  0xff, 0xff,
  0x00, 0x00,
  0xff, 0xff,
  0x00, 0x00,
  0xff, 0xff,
  0x00, 0x00,
  0xff, 0xff,
  0x00, 0x00,
  0xff, 0xff,
  0x00, 0x00,
  0xff, 0xff,
  0x00, 0x00,
  0xff, 0xff,
  0x00, 0x00,
  0xff, 0xff,
  0x00, 0x00};
