#define i_width 16
#define i_height 16
static char i_bits[] = {
  0x22, 0x22,
  0x77, 0x77,
  0x22, 0x02,
  0x00, 0x00,
  0x22, 0x22,
  0x77, 0x77,
  0x22, 0x22,
  0x00, 0x00,
  0x22, 0x22,
  0x77, 0x77,
  0x22, 0x22,
  0x00, 0x00,
  0x22, 0x22,
  0x77, 0x77,
  0x22, 0x22,
  0x00, 0x00};
