#define j_width 16
#define j_height 16
static char j_bits[] = {
  0x55, 0x55,
  0xaa, 0xaa,
  0x55, 0x55,
  0xaa, 0xaa,
  0x55, 0x55,
  0xaa, 0xaa,
  0x55, 0x55,
  0xaa, 0xaa,
  0x55, 0x55,
  0xaa, 0xaa,
  0x55, 0x55,
  0xaa, 0xaa,
  0x55, 0x55,
  0xaa, 0xaa,
  0x55, 0x55,
  0xaa, 0xaa};
