#define k_width 16
#define k_height 16
static char k_bits[] = {
  0xaa, 0xaa,
  0x55, 0x55,
  0xaa, 0xaa,
  0x55, 0x55,
  0xaa, 0xaa,
  0x55, 0x55,
  0xaa, 0xaa,
  0x55, 0x55,
  0xaa, 0xaa,
  0x55, 0x55,
  0xaa, 0xaa,
  0x55, 0x55,
  0xaa, 0xaa,
  0x55, 0x55,
  0xaa, 0xaa,
  0x55, 0x55};
