#define l_width 16
#define l_height 16
static char l_bits[] = {
  0x00, 0x00,
  0x55, 0x55,
  0x00, 0x00,
  0x55, 0x55,
  0x00, 0x00,
  0x55, 0x55,
  0x00, 0x00,
  0x55, 0x55,
  0x00, 0x00,
  0x55, 0x55,
  0x00, 0x00,
  0x55, 0x55,
  0x00, 0x00,
  0x55, 0x55,
  0x00, 0x00,
  0x55, 0x55};
