#define m_width 16
#define m_height 16
static char m_bits[] = {
  0x00, 0x00,
  0xaa, 0xaa,
  0x00, 0x00,
  0xaa, 0xaa,
  0x00, 0x00,
  0xaa, 0xaa,
  0x00, 0x00,
  0xaa, 0xaa,
  0x00, 0x00,
  0xaa, 0xaa,
  0x00, 0x00,
  0xaa, 0xaa,
  0x00, 0x00,
  0xaa, 0xaa,
  0x00, 0x00,
  0xaa, 0xaa};
